<svg width="27" height="24" viewBox="0 0 27 24" fill="none" xmlns="http://www.w3.org/2000/svg">
<rect y="11.833" width="8.97235" height="8.94742" rx="2" fill="#F0B270"/>
<rect x="0.837036" y="12.667" width="7.35381" height="0.833338" rx="0.416669" fill="white"/>
<rect x="17.548" y="11.833" width="8.97235" height="8.94742" rx="2" fill="#F0B270"/>
<rect x="18.385" y="12.833" width="7.35381" height="1.00001" rx="0.500003" fill="white"/>
<rect x="8.02234" y="11.333" width="10.0279" height="10.0001" rx="2" fill="#796FF1"/>
<rect x="9.03015" y="12.5" width="8.02233" height="1.16667" rx="0.583337" fill="white"/>
<rect x="8.02234" y="22.667" width="10.0279" height="1.33334" rx="0.666671" fill="#796FF1"/>
<ellipse cx="13.0351" cy="4.33336" rx="4.34543" ry="4.33336" fill="#796FF1"/>
<path d="M11.6402 3.91957L12.1802 3.009C12.5676 2.35577 13.513 2.35577 13.9004 3.009L14.4404 3.91957C14.6302 4.23963 14.6266 4.63861 14.4311 4.95519L13.8911 5.82934C13.5003 6.46194 12.5803 6.46194 12.1895 5.82934L11.6495 4.95519C11.454 4.63861 11.4504 4.23963 11.6402 3.91957Z" fill="white"/>
<ellipse cx="4.51202" cy="6.66733" rx="2.84124" ry="2.83335" fill="#796FF1"/>
<path d="M5.33127 6.23801C5.5127 6.54396 5.50925 6.92535 5.32232 7.22797C4.94877 7.83268 4.06937 7.83268 3.69582 7.22797C3.50888 6.92535 3.50543 6.54396 3.68687 6.23801C4.05717 5.61359 4.96097 5.61359 5.33127 6.23801Z" fill="white"/>
<ellipse cx="22.0572" cy="6.66636" rx="2.84124" ry="2.83335" fill="#796FF1"/>
<path d="M22.8799 6.23801C23.0613 6.54396 23.0578 6.92535 22.8709 7.22797C22.4973 7.83268 21.618 7.83268 21.2444 7.22797C21.0575 6.92535 21.054 6.54396 21.2355 6.23801C21.6058 5.61359 22.5096 5.61359 22.8799 6.23801Z" fill="white"/>
<line x1="8.02234" y1="16" x2="18.0503" y2="16" stroke="white" stroke-opacity="0.2"/>
<line x1="18.0469" y1="16" x2="26.5706" y2="16" stroke="white" stroke-opacity="0.2"/>
<line x1="-4.38332e-08" y1="16" x2="8.02233" y2="16" stroke="white" stroke-opacity="0.2"/>
</svg>
