<svg width="29" height="29" viewBox="0 0 29 29" fill="none" xmlns="http://www.w3.org/2000/svg">
<g clip-path="url(#clip0_84_2088)">
<path d="M7.86462 17.6876V21.7278C7.86462 21.9421 7.94748 22.1477 8.09497 22.2992C8.24246 22.4507 8.4425 22.5359 8.65108 22.5359H18.1279L22.0209 25.7681V12.8393C22.0209 12.625 21.938 12.4195 21.7906 12.2679C21.6431 12.1164 21.443 12.0312 21.2344 12.0312H17.3021" fill="#796FF1"/>
<path d="M7.86462 17.6876V21.7278C7.86462 21.9421 7.94748 22.1477 8.09497 22.2992C8.24246 22.4507 8.4425 22.5359 8.65108 22.5359H18.1279L22.0209 25.7681V12.8393C22.0209 12.625 21.938 12.4195 21.7906 12.2679C21.6431 12.1164 21.443 12.0312 21.2344 12.0312H17.3021" stroke="#796FF1" stroke-width="5" stroke-linecap="round" stroke-linejoin="round"/>
<rect x="8.66394" y="15.0117" width="11.9645" height="1.69558" rx="0.847789" fill="white"/>
<rect x="8.66394" y="17.9785" width="11.9645" height="1.69558" rx="0.847788" fill="white"/>
<path d="M7.03885 17.6872L3.14587 20.9194V7.99067C3.14587 7.77636 3.22873 7.57083 3.37622 7.41929C3.52371 7.26775 3.72375 7.18262 3.93233 7.18262H16.5157C16.7243 7.18262 16.9243 7.26775 17.0718 7.41929C17.2193 7.57083 17.3021 7.77636 17.3021 7.99067V16.8792C17.3021 17.0935 17.2193 17.299 17.0718 17.4506C16.9243 17.6021 16.7243 17.6872 16.5157 17.6872H7.03885Z" fill="#F0B270" stroke="#F0B270" stroke-width="5" stroke-linecap="round" stroke-linejoin="round"/>
<rect x="4.12573" y="9.9248" width="11.9645" height="1.69557" rx="0.847787" fill="white"/>
<rect x="4.12573" y="12.8926" width="11.9645" height="1.69558" rx="0.847788" fill="white"/>
</g>
<ellipse rx="3.45134" ry="3.52204" transform="matrix(0.931883 0.362758 -0.345978 0.938242 23.6605 4.55653)" fill="#F0B270"/>
<path d="M22.5263 4.32123L23.2786 2.98174C23.4653 2.64939 23.9453 2.64939 24.1438 2.98174L24.9443 4.32123C25.0385 4.47903 25.0403 4.6741 24.9488 4.83024L24.1955 6.11615C24.0069 6.43824 23.5397 6.43824 23.3394 6.11615L22.54 4.83024C22.4429 4.6741 22.4377 4.47903 22.5263 4.32123Z" fill="white"/>
<defs>
<clipPath id="clip0_84_2088">
<rect width="25.1667" height="25.8575" fill="white" transform="translate(0 3.14258)"/>
</clipPath>
</defs>
</svg>
