<svg width="44" height="44" viewBox="0 0 44 44" fill="none" xmlns="http://www.w3.org/2000/svg">
<path d="M43.9969 12.1871C43.9943 11.7446 43.9894 11.3023 43.9772 10.8593C43.9514 9.89558 43.8944 8.92314 43.7231 7.96973C43.5493 7.00151 43.2652 6.10123 42.8174 5.22169C42.3779 4.35792 41.8033 3.56751 41.1178 2.88207C40.4325 2.19663 39.6421 1.6221 38.778 1.18233C37.8992 0.735075 36.9988 0.451032 36.0314 0.277227C35.0775 0.105423 34.1051 0.0488223 33.1406 0.0227442C32.6978 0.0107424 32.2554 0.00570457 31.8128 0.00296342C31.2874 0 30.7616 0 30.2363 0H18.5889H13.7637C13.2379 0 12.7127 0 12.1874 0.0030375C11.7446 0.00577866 11.3017 0.0108165 10.8596 0.0228183C10.6185 0.0293378 10.3769 0.0377835 10.1352 0.0494149C9.41003 0.0843832 8.68377 0.148467 7.9687 0.277302C7.24318 0.407692 6.55522 0.600017 5.88593 0.876726C5.66286 0.968889 5.44179 1.07053 5.22205 1.18233C4.57395 1.51216 3.9672 1.91777 3.41533 2.38911C3.23138 2.54624 3.0535 2.71064 2.88222 2.882C2.19663 3.56743 1.62202 4.35785 1.18247 5.22161C0.734702 6.10115 0.450955 7.00144 0.277003 7.96966C0.105866 8.92307 0.0489682 9.89551 0.0230383 10.8592C0.0108883 11.3022 0.00577638 11.7445 0.00288705 12.187C-0.000446795 12.7126 -2.2828e-06 13.2382 -2.2828e-06 13.7637V20.9365V30.2361C-2.2828e-06 30.762 -0.000520881 31.2871 0.00288705 31.8131C0.00577638 32.2556 0.0108883 32.6979 0.0230383 33.1402C0.0489682 34.1044 0.105792 35.0771 0.277003 36.03C0.450955 36.9979 0.734702 37.899 1.18247 38.7784C1.62202 39.6423 2.19663 40.4325 2.88222 41.1177C3.56728 41.8034 4.35792 42.3779 5.22213 42.8179C6.101 43.2653 7.00136 43.5489 7.96892 43.7227C8.92225 43.8943 9.89543 43.9514 10.8597 43.9772C11.3018 43.9889 11.7447 43.9942 12.1875 43.9967C12.7128 44.0005 13.2379 44 13.7637 44H30.2363C30.7616 44 31.2874 44.0005 31.8127 43.9967C32.2554 43.9942 32.6977 43.9889 33.1405 43.9772C34.105 43.9514 35.0774 43.8943 36.0313 43.7227C36.9987 43.5489 37.8991 43.2652 38.7779 42.8179C39.642 42.3779 40.4325 41.8034 41.1178 41.1177C41.8032 40.4325 42.3779 39.6423 42.8173 38.7784C43.2651 37.899 43.5492 36.998 43.723 36.03C43.8943 35.0771 43.9513 34.1044 43.9771 33.1402C43.9892 32.6979 43.9941 32.2557 43.9968 31.8131C44.0002 31.2871 43.9999 30.762 43.9999 30.2361V13.7637C44 13.2382 44.0002 12.7126 43.9969 12.1871Z" fill="#796FF1"/>
<path d="M34.865 27.1598C34.864 27.1584 34.863 27.1575 34.8619 27.1562C34.9106 26.9906 34.9608 26.8259 35.0034 26.6561C36.8296 19.3803 32.3725 10.7782 24.8303 6.24902C28.1354 10.7296 29.5969 16.1567 28.2984 20.9027C28.1826 21.3261 28.0434 21.7324 27.8896 22.1272C27.7226 22.0175 27.5122 21.893 27.2296 21.7372C27.2296 21.7372 19.727 17.1048 11.5955 8.91136C11.3821 8.69629 15.9316 15.4138 21.0947 20.8687C18.6621 19.5035 11.883 14.5711 7.59142 10.6432C8.11869 11.5225 8.74582 12.3692 9.43518 13.1844C13.0191 17.7294 17.6929 23.3373 23.2923 27.6435C19.3581 30.0512 13.799 30.2384 8.26397 27.6461C6.89494 27.0045 5.60793 26.2304 4.41656 25.3508C6.75952 29.0984 10.368 32.3318 14.7598 34.2194C19.9973 36.4702 25.2056 36.3176 29.0847 34.2563L29.0817 34.2608C29.0994 34.2496 29.1219 34.2374 29.1403 34.226C29.2995 34.1404 29.4576 34.0532 29.6123 33.9611C31.476 32.9937 35.1573 32.0122 37.1333 35.8568C37.6172 36.7977 38.6455 31.8114 34.865 27.1598Z" fill="white"/>
</svg>
