<svg width="46" height="46" viewBox="0 0 46 46" fill="none" xmlns="http://www.w3.org/2000/svg">
<path d="M23 46C35.7025 46 46 35.7025 46 23C46 10.2975 35.7025 0 23 0C10.2975 0 0 10.2975 0 23C0 35.7025 10.2975 46 23 46Z" fill="#69B1F3"/>
<path d="M23.7166 5.74707V18.4983L34.4936 23.3146L23.7166 5.74707Z" fill="white" fill-opacity="0.602"/>
<path d="M23.7165 5.74707L12.9396 23.3146L23.7165 18.4983V5.74707Z" fill="white"/>
<path d="M23.7166 31.5765V40.2408L34.4998 25.3203L23.7166 31.5765Z" fill="white" fill-opacity="0.602"/>
<path d="M23.7165 40.2408V31.5765L12.9396 25.3203L23.7165 40.2408Z" fill="white"/>
<path d="M23.7166 29.5705L34.4936 23.3144L23.7166 18.498V29.5705Z" fill="white" fill-opacity="0.2"/>
<path d="M12.9396 23.3144L23.7165 29.5705V18.498L12.9396 23.3144Z" fill="white" fill-opacity="0.602"/>
</svg>
