<svg width="48" height="48" viewBox="0 0 48 48" fill="none" xmlns="http://www.w3.org/2000/svg">
<path d="M47.5472 23.4116L45.5592 22.1799C45.5425 21.9861 45.5235 21.7927 45.5026 21.6003L47.2143 20.0063C47.3882 19.8442 47.4661 19.6042 47.419 19.3724C47.3733 19.1391 47.2098 18.9471 46.9875 18.8652L44.8003 18.0501C44.7455 17.8608 44.688 17.6729 44.6291 17.484L45.9921 15.5912C46.1312 15.3988 46.1597 15.1484 46.0691 14.9301C45.9785 14.7114 45.7807 14.5547 45.5484 14.5162L43.2435 14.1413C43.1538 13.9665 43.0605 13.7944 42.9663 13.625L43.9354 11.4967C44.0346 11.2803 44.0142 11.0303 43.8819 10.8311C43.7502 10.6336 43.5269 10.5182 43.2887 10.5272L40.9476 10.6087C40.8267 10.4575 40.7035 10.3076 40.5781 10.1604L41.117 7.88269C41.1713 7.65129 41.1029 7.40722 40.9345 7.23967C40.7674 7.07212 40.5247 7.00284 40.2915 7.05718L38.0137 7.59605C37.8661 7.47106 37.7162 7.34744 37.5645 7.22654L37.6465 4.8854C37.6555 4.64857 37.5401 4.42352 37.3426 4.2922C37.1447 4.15997 36.8943 4.14004 36.677 4.23831L34.5532 5.20737C34.3816 5.11318 34.2095 5.01989 34.037 4.92978L33.6611 2.62488C33.6231 2.39121 33.4664 2.19288 33.2472 2.10412C33.0285 2.0131 32.7763 2.04254 32.5861 2.1811L30.6933 3.54412C30.5067 3.4848 30.3192 3.42774 30.1318 3.3734L29.3167 1.18623C29.2338 0.963441 29.0418 0.799969 28.8095 0.75378C28.5767 0.708044 28.3386 0.785478 28.1755 0.958459L26.5816 2.67016C26.3891 2.64888 26.1953 2.6294 26.0019 2.61355L24.7703 0.621101C24.6457 0.419592 24.4252 0.296875 24.1861 0.296875C23.947 0.296875 23.7287 0.419592 23.6065 0.621101L22.3748 2.61355C22.181 2.6294 21.9872 2.64888 21.7952 2.67016L20.2012 0.958459C20.0395 0.785478 19.7995 0.708044 19.5672 0.75378C19.334 0.800422 19.142 0.963441 19.0601 1.18623L18.245 3.3734C18.0557 3.42774 17.8682 3.48525 17.6835 3.54412L15.7906 2.1811C15.5982 2.04208 15.3473 2.01265 15.1295 2.10412C14.9108 2.19469 14.7536 2.39303 14.7156 2.62488L14.3398 4.92978C14.1659 5.01989 13.9938 5.11272 13.8235 5.20737L11.6998 4.23831C11.4838 4.13959 11.2333 4.15997 11.0341 4.2922C10.8367 4.42352 10.7212 4.64857 10.7303 4.8854L10.8118 7.22654C10.6605 7.34744 10.5106 7.47106 10.3626 7.59605L8.08482 7.05718C7.85342 7.00329 7.60935 7.07212 7.4418 7.23967C7.27335 7.40767 7.20497 7.64993 7.25931 7.88269L7.79365 10.1604C7.66912 10.308 7.54595 10.4575 7.42505 10.6087L5.08391 10.5272C4.84799 10.5204 4.62203 10.6336 4.49071 10.8311C4.35848 11.0276 4.33856 11.2794 4.43682 11.4967L5.40588 13.625C5.31169 13.7957 5.2184 13.9678 5.12829 14.1413L2.82339 14.5162C2.58927 14.5542 2.39184 14.7109 2.30263 14.9301C2.21206 15.1497 2.2415 15.401 2.37961 15.5912L3.74263 17.484C3.68331 17.6711 3.6258 17.859 3.57146 18.0501L1.38429 18.8652C1.1624 18.948 0.998932 19.14 0.952744 19.3724C0.906555 19.6051 0.983989 19.8433 1.15742 20.0063L2.86912 21.6003C2.84784 21.7927 2.82882 21.9865 2.81252 22.1799L0.824592 23.4116C0.623083 23.5361 0.500366 23.7562 0.500366 23.9957C0.500366 24.2353 0.623083 24.4531 0.824592 24.5754L2.81252 25.8071C2.82882 26.0009 2.84784 26.1942 2.86912 26.3867L1.15742 27.9807C0.983989 28.1423 0.906555 28.3823 0.952744 28.6146C0.998932 28.8478 1.1624 29.0394 1.38429 29.1218L3.57146 29.9369C3.6258 30.1262 3.68331 30.3141 3.74263 30.5029L2.37961 32.3958C2.24105 32.5887 2.21161 32.8391 2.30263 33.0569C2.39365 33.2765 2.59154 33.4332 2.82791 33.4708L5.13282 33.8457C5.22293 34.0205 5.31531 34.1926 5.4104 34.3619L4.44135 36.4857C4.34263 36.7017 4.36301 36.9521 4.49523 37.1514C4.62746 37.3493 4.85252 37.4647 5.08844 37.4552L7.42505 37.3733C7.54686 37.5254 7.66957 37.6744 7.79456 37.8225L7.26022 40.1002C7.20588 40.3312 7.27425 40.5711 7.44271 40.7387C7.6098 40.9076 7.85297 40.9751 8.08572 40.9207L10.3635 40.3864C10.5115 40.5123 10.6614 40.6345 10.8127 40.755L10.7312 43.0961C10.7221 43.333 10.8376 43.558 11.035 43.6893C11.2315 43.8211 11.4833 43.841 11.7007 43.7423L13.8244 42.7733C13.9956 42.8684 14.1677 42.9607 14.3407 43.0508L14.7165 45.3558C14.7546 45.5903 14.9112 45.7887 15.1304 45.881C15.3491 45.9721 15.6013 45.9426 15.7915 45.8045L17.6844 44.4415C17.8714 44.5008 18.0593 44.5588 18.2504 44.6131L19.0655 46.8003C19.1484 47.0222 19.3404 47.1865 19.5727 47.2318C19.8054 47.2789 20.0436 47.201 20.2066 47.0271L21.8006 45.3155C21.993 45.3376 22.1869 45.3562 22.3802 45.3734L23.6119 47.3613C23.736 47.5619 23.9565 47.6856 24.1915 47.6856C24.4266 47.6856 24.6489 47.5624 24.7757 47.3613L26.0074 45.3734C26.2012 45.3562 26.3946 45.3376 26.587 45.3155L28.181 47.0271C28.3426 47.201 28.5826 47.2789 28.8149 47.2318C29.0481 47.1861 29.2401 47.0222 29.3221 46.8003L30.1372 44.6131C30.3265 44.5588 30.5144 44.5008 30.7032 44.4415L32.5961 45.8045C32.7885 45.9426 33.0394 45.9721 33.2572 45.881C33.4764 45.7909 33.633 45.5921 33.6711 45.3558L34.0469 43.0508C34.2208 42.9607 34.3929 42.867 34.5632 42.7733L36.6869 43.7423C36.9029 43.841 37.1533 43.8211 37.3526 43.6893C37.55 43.5571 37.665 43.333 37.6564 43.0961L37.5749 40.755C37.7262 40.6341 37.8761 40.5123 38.0237 40.3864L40.3014 40.9207C40.5328 40.9751 40.7769 40.9076 40.9444 40.7387C41.1129 40.5707 41.1813 40.3293 41.1269 40.1002L40.5926 37.8225C40.7176 37.6744 40.8407 37.5254 40.9612 37.3733L43.3023 37.4552C43.5382 37.4647 43.7642 37.3493 43.8955 37.1514C44.0278 36.9539 44.0481 36.7026 43.949 36.4857L42.9799 34.3619C43.0746 34.1903 43.1674 34.0182 43.257 33.8457L45.562 33.4708C45.7965 33.4332 45.9939 33.2765 46.0827 33.0569C46.1733 32.8382 46.1447 32.5859 46.0057 32.3958L44.6427 30.5029C44.7016 30.3159 44.7591 30.128 44.8139 29.9369L47.001 29.1218C47.2234 29.0385 47.3873 28.8469 47.4326 28.6146C47.4797 28.3819 47.4018 28.1437 47.2279 27.9807L45.5162 26.3867C45.537 26.1942 45.5561 26.0004 45.5728 25.8071L47.5607 24.5754C47.7623 24.4513 47.885 24.2308 47.885 23.9957C47.885 23.7607 47.7627 23.5384 47.5612 23.4116H47.5472ZM34.2339 39.9399C33.4732 39.776 32.9932 39.0252 33.1562 38.2644C33.3188 37.5037 34.0664 37.0191 34.8272 37.1822C35.5879 37.3447 36.0724 38.0969 35.9094 38.8576C35.7464 39.6184 34.9992 40.1029 34.2385 39.9399H34.2339ZM33.5592 35.3663C32.8664 35.2178 32.1826 35.6588 32.0377 36.3535L31.3313 39.6501C29.1532 40.6373 26.7124 41.1897 24.1766 41.1897C21.5683 41.1897 19.1049 40.6146 16.886 39.5822L16.1796 36.2856C16.0311 35.5927 15.3509 35.149 14.6581 35.2984L11.7464 35.9233C11.2075 35.3663 10.7049 34.7731 10.243 34.1482H24.4166C24.5769 34.1482 24.6838 34.1192 24.6838 33.9734V28.947C24.6838 28.8012 24.5769 28.7722 24.4166 28.7722H20.2732V25.5979H24.7517C25.1606 25.5979 26.9389 25.7147 27.5049 27.9888C27.6829 28.6862 28.0755 30.9594 28.3426 31.6884C28.6089 32.5035 29.6921 34.1337 30.8468 34.1337H37.9109C37.9911 34.1337 38.0767 34.1247 38.1668 34.1084C37.6777 34.774 37.1389 35.4035 36.5638 35.9921L33.5841 35.3536L33.5592 35.3663ZM13.9517 39.872C13.1909 40.0359 12.4438 39.5514 12.2807 38.7897C12.1182 38.029 12.6013 37.2773 13.363 37.1142C14.1238 36.9517 14.8709 37.4362 15.034 38.1965C15.1965 38.9573 14.7129 39.709 13.9517 39.872ZM8.56301 18.0908C8.87818 18.8018 8.55757 19.635 7.84754 19.952C7.13659 20.2676 6.30791 19.9465 5.99093 19.2365C5.67395 18.5265 5.99637 17.6923 6.7064 17.3754C7.41735 17.0602 8.24603 17.3808 8.56301 18.0908ZM6.91018 22.0033L9.94414 20.6539C10.5917 20.3663 10.886 19.6078 10.5962 18.9603L9.97131 17.5474H12.4256V28.5965H7.4898C7.06006 27.0841 6.82867 25.4901 6.82867 23.8418C6.82867 23.2124 6.86263 22.592 6.92784 21.9807L6.91018 22.0033ZM20.2234 20.9301V17.6697H26.0649C26.3669 17.6697 28.1977 18.0188 28.1977 19.3859C28.1977 20.5225 26.794 20.9301 25.6392 20.9301H20.2053H20.2234ZM41.4611 23.8644C41.4611 24.2973 41.4453 24.7248 41.4136 25.1505H39.6339C39.456 25.1505 39.3844 25.2673 39.3844 25.4416V26.2567C39.3844 28.1767 38.3022 28.5979 37.3512 28.702C36.4456 28.8039 35.4448 28.3234 35.3226 27.7692C34.7882 24.7669 33.9007 24.1284 32.4969 23.0145C34.2403 21.9096 36.0516 20.2748 36.0516 18.0786C36.0516 15.7194 34.435 14.2341 33.3346 13.505C31.786 12.4862 30.0743 12.2824 29.6124 12.2824H11.2275C13.7226 9.50201 17.1143 7.52767 20.918 6.80314L23.0871 9.07635C23.5761 9.58805 24.3867 9.61069 24.9029 9.11801L27.3301 6.79952C32.4018 7.74593 36.7037 10.9067 39.1943 15.2674L37.5324 19.0169C37.2457 19.6644 37.5382 20.4252 38.1844 20.7105L41.3814 22.1324C41.4367 22.6984 41.4656 23.2735 41.4656 23.8531L41.4611 23.8644ZM23.0762 4.89084C23.6377 4.35197 24.5298 4.37461 25.0641 4.93657C25.5985 5.49808 25.5804 6.39016 25.0175 6.92903C24.456 7.46789 23.5639 7.44525 23.0296 6.88284C22.4952 6.32133 22.5133 5.42925 23.0762 4.89039V4.89084ZM39.5592 18.1588C39.874 17.4478 40.7049 17.1263 41.4158 17.4433C42.1268 17.7585 42.4483 18.5935 42.1313 19.3044C41.8166 20.0154 40.9856 20.3369 40.2747 20.0199C39.5638 19.7047 39.2423 18.8697 39.5592 18.1588Z" fill="#796FF1"/>
</svg>
