<svg width="43" height="43" viewBox="0 0 43 43" fill="none" xmlns="http://www.w3.org/2000/svg">
<path d="M35.6094 4.70312H7.39062C6.6781 4.70393 5.995 4.98734 5.49117 5.49117C4.98734 5.995 4.70393 6.6781 4.70312 7.39062V35.6094C4.70394 36.3219 4.98735 37.005 5.49118 37.5088C5.995 38.0127 6.67811 38.2961 7.39062 38.2969H35.6094C36.3219 38.2961 37.005 38.0127 37.5088 37.5088C38.0127 37.005 38.2961 36.3219 38.2969 35.6094V7.39062C38.2961 6.6781 38.0127 5.995 37.5088 5.49117C37.005 4.98734 36.3219 4.70393 35.6094 4.70312ZM16.125 29.5627C16.125 29.9191 15.9834 30.2608 15.7314 30.5128C15.4794 30.7648 15.1376 30.9064 14.7812 30.9064C14.4249 30.9064 14.0831 30.7648 13.8311 30.5128C13.5791 30.2608 13.4375 29.9191 13.4375 29.5627V18.8127C13.4375 18.4563 13.5791 18.1145 13.8311 17.8625C14.0831 17.6105 14.4249 17.4689 14.7812 17.4689C15.1376 17.4689 15.4794 17.6105 15.7314 17.8625C15.9834 18.1145 16.125 18.4563 16.125 18.8127V29.5627ZM14.7812 15.4531C14.3826 15.4531 13.9929 15.3349 13.6614 15.1134C13.33 14.892 13.0716 14.5772 12.9191 14.2088C12.7665 13.8405 12.7266 13.4353 12.8044 13.0443C12.8821 12.6533 13.0741 12.2941 13.356 12.0122C13.6379 11.7303 13.997 11.5384 14.388 11.4606C14.779 11.3828 15.1843 11.4227 15.5526 11.5753C15.9209 11.7279 16.2357 11.9862 16.4572 12.3177C16.6787 12.6491 16.7969 13.0388 16.7969 13.4375C16.7969 13.9721 16.5845 14.4848 16.2065 14.8628C15.8285 15.2408 15.3158 15.4531 14.7812 15.4531ZM30.9062 29.5627C30.9062 29.9191 30.7647 30.2608 30.5127 30.5128C30.2607 30.7648 29.9189 30.9064 29.5625 30.9064C29.2061 30.9064 28.8643 30.7648 28.6123 30.5128C28.3603 30.2608 28.2188 29.9191 28.2188 29.5627V23.5158C28.2188 22.6248 27.8648 21.7704 27.2348 21.1404C26.6048 20.5104 25.7503 20.1564 24.8594 20.1564C23.9684 20.1564 23.1139 20.5104 22.4839 21.1404C21.8539 21.7704 21.5 22.6248 21.5 23.5158V29.5627C21.5 29.9191 21.3584 30.2608 21.1064 30.5128C20.8544 30.7648 20.5126 30.9064 20.1562 30.9064C19.7999 30.9064 19.4581 30.7648 19.2061 30.5128C18.9541 30.2608 18.8125 29.9191 18.8125 29.5627V18.8127C18.8124 18.4824 18.934 18.1636 19.1541 17.9172C19.3741 17.6709 19.6772 17.5143 20.0055 17.4774C20.3337 17.4404 20.6641 17.5257 20.9334 17.7169C21.2028 17.9081 21.3922 18.1919 21.4656 18.5139C22.3743 17.8964 23.4342 17.5382 24.5313 17.478C25.6284 17.4178 26.7211 17.6578 27.692 18.1722C28.6629 18.6866 29.4752 19.4559 30.0415 20.3974C30.6079 21.339 30.9068 22.4171 30.9062 23.5158V29.5627Z" fill="white"/>
</svg>
