<svg width="43" height="43" viewBox="0 0 43 43" fill="none" xmlns="http://www.w3.org/2000/svg">
<path d="M38.8512 5.32469C38.4784 5.00879 38.0269 4.7998 37.5448 4.71995C37.0628 4.64009 36.568 4.69235 36.1133 4.87118L5.10626 17.0489C4.5624 17.2561 4.10174 17.6364 3.79519 18.1311C3.48865 18.6258 3.35323 19.2076 3.40978 19.7868C3.46023 20.3658 3.69703 20.9129 4.08466 21.3459C4.4723 21.779 4.98987 22.0747 5.55978 22.1888L13.4375 23.7509V33.5938C13.4372 34.1263 13.5951 34.6469 13.8912 35.0895C14.1873 35.5321 14.6081 35.8768 15.1004 36.0798C15.4262 36.2109 15.7738 36.2793 16.125 36.2813C16.478 36.2826 16.8277 36.2134 17.1536 36.0779C17.4795 35.9423 17.7751 35.7431 18.0231 35.4919L22.3902 31.1415L28.9914 36.9532C29.4788 37.383 30.1053 37.6217 30.7551 37.6251C31.0408 37.631 31.3253 37.5855 31.5949 37.4907C32.0382 37.3505 32.4371 37.0969 32.7524 36.7552C33.0676 36.4135 33.2881 35.9954 33.3922 35.5423L39.7078 7.9618C39.8182 7.48589 39.7968 6.98889 39.6459 6.52424C39.4949 6.05959 39.2202 5.64488 38.8512 5.32469ZM30.7719 34.9376L16.9313 22.7599L36.8691 8.36493L30.7719 34.9376Z" fill="white"/>
</svg>
