<svg width="131" height="131" viewBox="0 0 131 131" fill="none" xmlns="http://www.w3.org/2000/svg">
<circle cx="65.5" cy="65.5" r="65.5" fill="#F2E4C8"/>
<path d="M51.0625 72.7256V82.2568C51.0625 82.7624 51.2633 83.2473 51.6208 83.6048C51.9783 83.9623 52.4632 84.1631 52.9688 84.1631H75.9391L85.375 91.7881V61.2881C85.375 60.7825 85.1742 60.2977 84.8167 59.9402C84.4592 59.5827 83.9743 59.3818 83.4688 59.3818H73.9375" fill="#796FF1"/>
<path d="M51.0625 72.7256V82.2568C51.0625 82.7624 51.2633 83.2473 51.6208 83.6048C51.9783 83.9623 52.4632 84.1631 52.9688 84.1631H75.9391L85.375 91.7881V61.2881C85.375 60.7825 85.1742 60.2977 84.8167 59.9402C84.4592 59.5827 83.9743 59.3818 83.4688 59.3818H73.9375" stroke="#796FF1" stroke-width="5" stroke-linecap="round" stroke-linejoin="round"/>
<rect x="53" y="66.4131" width="29" height="4" rx="1" fill="white"/>
<rect x="53" y="73.4131" width="29" height="4" rx="1" fill="white"/>
<path d="M49.0609 72.7256L39.625 80.3506V49.8506C39.625 49.345 39.8258 48.8602 40.1833 48.5027C40.5408 48.1452 41.0257 47.9443 41.5312 47.9443H72.0312C72.5368 47.9443 73.0217 48.1452 73.3792 48.5027C73.7367 48.8602 73.9375 49.345 73.9375 49.8506V70.8193C73.9375 71.3249 73.7367 71.8098 73.3792 72.1673C73.0217 72.5248 72.5368 72.7256 72.0312 72.7256H49.0609Z" fill="#F0B270" stroke="#F0B270" stroke-width="5" stroke-linecap="round" stroke-linejoin="round"/>
<rect x="42" y="54.4131" width="29" height="4" rx="1" fill="white"/>
<rect x="42" y="61.4131" width="29" height="4" rx="1" fill="white"/>
<circle cx="89.3382" cy="41.7492" r="8.33642" transform="rotate(20.7504 89.3382 41.7492)" fill="#F0B270"/>
<path d="M87.3616 39.8743L88.8073 38.7181C89.9952 37.7681 91.7668 38.4393 92.027 39.9379L92.3436 41.7619C92.4706 42.4934 92.182 43.2351 91.5938 43.6882L90.1707 44.7849C88.9909 45.6939 87.2671 45.0408 86.9859 43.5782L86.6467 41.8139C86.5065 41.0848 86.7817 40.338 87.3616 39.8743Z" fill="white"/>
</svg>
