<svg width="131" height="131" viewBox="0 0 131 131" fill="none" xmlns="http://www.w3.org/2000/svg">
<circle cx="65.5" cy="65.5" r="65.5" fill="#DFDDFB"/>
<rect x="29" y="64.5957" width="24.6465" height="24.6465" rx="3" fill="#69B1F3"/>
<rect x="31.3008" y="66.8916" width="20.2005" height="2.29551" rx="1" fill="white"/>
<rect x="77.207" y="64.5957" width="24.6465" height="24.6465" rx="3" fill="#69B1F3"/>
<rect x="79.5" y="67.3506" width="20.2005" height="2.75461" rx="1" fill="white"/>
<rect x="51.0352" y="63.2188" width="27.5461" height="27.5461" rx="3" fill="#796FF1"/>
<rect x="53.793" y="66.4326" width="22.0369" height="3.21371" rx="1" fill="white"/>
<rect x="51.0352" y="94.4375" width="27.5461" height="3.67281" rx="1" fill="#796FF1"/>
<circle cx="64.8155" cy="43.9366" r="11.9366" fill="#796FF1"/>
<path d="M60.7356 43.1905L63.0938 39.203C63.868 37.8937 65.7625 37.8937 66.5368 39.203L68.8949 43.1905C69.2729 43.8296 69.2657 44.6254 68.8763 45.2576L66.5181 49.0856C65.737 50.3536 63.8936 50.3536 63.1124 49.0856L60.7543 45.2576C60.3649 44.6254 60.3577 43.8296 60.7356 43.1905Z" fill="white"/>
<circle cx="41.3946" cy="50.3643" r="7.80473" fill="#796FF1"/>
<path d="M38.9466 49.5161L39.6798 48.2762C40.4541 46.967 42.3485 46.967 43.1228 48.2762L43.856 49.5161C44.234 50.1552 44.2268 50.951 43.8374 51.5831L43.1041 52.7734C42.323 54.0415 40.4796 54.0415 39.6985 52.7734L38.9652 51.5831C38.5758 50.951 38.5686 50.1552 38.9466 49.5161Z" fill="white"/>
<circle cx="89.5977" cy="50.3643" r="7.80473" fill="#796FF1"/>
<path d="M87.1458 49.5161L87.879 48.2762C88.6533 46.967 90.5478 46.967 91.322 48.2762L92.0553 49.5161C92.4332 50.1552 92.426 50.951 92.0366 51.5831L91.3034 52.7734C90.5222 54.0415 88.6788 54.0415 87.8977 52.7734L87.1644 51.5831C86.775 50.951 86.7679 50.1552 87.1458 49.5161Z" fill="white"/>
<line x1="51.0352" y1="76.9512" x2="78.5812" y2="76.9512" stroke="white" stroke-opacity="0.2"/>
<line x1="78.5859" y1="76.9512" x2="102" y2="76.9512" stroke="white" stroke-opacity="0.2"/>
<line x1="29" y1="76.9512" x2="51.0369" y2="76.9512" stroke="white" stroke-opacity="0.2"/>
</svg>
