<svg width="131" height="131" viewBox="0 0 131 131" fill="none" xmlns="http://www.w3.org/2000/svg">
<circle cx="65.5" cy="65.5" r="65.5" fill="#E0EFFC"/>
<rect x="32.5" y="87.5771" width="49.0773" height="60.2367" rx="3.5" transform="rotate(-90 32.5 87.5771)" fill="white" stroke="#69B1F3" stroke-width="3"/>
<rect x="37.0859" y="44.4395" width="35.1691" height="7.43961" rx="2" fill="#F2F2F2"/>
<rect x="37.0859" y="58.3047" width="44.9758" height="4.7343" rx="2" fill="#F2F2F2"/>
<rect x="37.0859" y="64.7295" width="31.1111" height="4.7343" rx="2" fill="#F2F2F2"/>
<rect x="55.3477" y="76.9033" width="31.1111" height="4.7343" rx="2" fill="#F2F2F2"/>
<rect x="77.1367" y="91.9736" width="40.285" height="22.3623" rx="3.5" transform="rotate(-90 77.1367 91.9736)" fill="white" stroke="#F0B270" stroke-width="3"/>
<rect x="81.0469" y="57.29" width="14.5411" height="4.7343" rx="2" fill="#F2F2F2"/>
<rect x="79.0195" y="68.7881" width="18.599" height="4.7343" rx="2" fill="#F2F2F2"/>
<rect x="79.0195" y="75.2129" width="18.599" height="4.7343" rx="2" fill="#F2F2F2"/>
<rect x="79.0195" y="81.6377" width="18.599" height="4.7343" rx="2" fill="#F2F2F2"/>
</svg>
