<svg width="64" height="64" viewBox="0 0 64 64" fill="none" xmlns="http://www.w3.org/2000/svg">
<circle cx="32" cy="32" r="32" fill="white"/>
<path fill-rule="evenodd" clip-rule="evenodd" d="M31.5 13C38.9598 13 45 19.0477 45 26.5167V43.9629H18V26.5167C18 19.0477 24.0402 13 31.5 13ZM26.1 22.8936C24.5412 22.8936 23.2887 24.1478 23.2887 25.7085C23.2887 27.2691 24.5412 28.5233 26.1 28.5233C27.6587 28.5233 28.9113 27.2691 28.9113 25.7085C28.9113 24.1478 27.6587 22.8936 26.1 22.8936ZM36.0649 22.8936C34.5062 22.8936 33.2536 24.1478 33.2536 25.7085C33.2536 27.2691 34.5062 28.5233 36.0649 28.5233C37.6237 28.5233 38.8763 27.2691 38.8763 25.7085C38.8763 24.1478 37.6237 22.8936 36.0649 22.8936Z" fill="#FF5C3E"/>
<path fill-rule="evenodd" clip-rule="evenodd" d="M31.5 14.8125C38.9598 14.8125 45 19.4667 45 31.1997V44.9672H18V26.2668C18 19.1323 24.0402 14.8125 31.5 14.8125ZM26.1 22.8946C24.5412 22.8946 23.2887 24.1487 23.2887 25.7094C23.2887 27.2701 24.5412 28.5242 26.1 28.5242C27.6587 28.5242 28.9113 27.2701 28.9113 25.7094C28.9113 24.1487 27.6587 22.8946 26.1 22.8946ZM36.0649 22.8946C34.5062 22.8946 33.2536 24.1487 33.2536 25.7094C33.2536 27.2701 34.5062 28.5242 36.0649 28.5242C37.6237 28.5242 38.8763 27.2701 38.8763 25.7094C38.8763 24.1487 37.6237 22.8946 36.0649 22.8946Z" fill="#FF5C3E"/>
<path fill-rule="evenodd" clip-rule="evenodd" d="M31.4995 16.1211C38.9593 16.1211 44.9995 20.6081 44.9995 31.923V51.0136C44.9995 51.8775 44.3036 52.5464 43.4686 52.5464C42.6057 52.5464 41.9377 51.8496 41.9377 51.0136V46.7217C41.9377 45.9413 41.2696 45.3282 40.4346 45.3003H40.4067C39.5717 45.3003 38.8758 45.9135 38.8758 46.6938V48.6168C38.8758 49.425 38.2356 50.066 37.4284 50.066C36.6212 50.066 35.981 49.425 35.981 48.6168V46.7217C35.981 45.9413 35.3129 45.3282 34.4779 45.3003H34.45C33.615 45.3003 32.9191 45.9135 32.9191 46.6938V47.084C32.9191 47.8922 32.2789 48.5332 31.4717 48.5332C30.6645 48.5332 30.0243 47.8922 30.0243 47.084V46.7217C30.0243 45.9413 29.3562 45.3282 28.5212 45.3003H28.4934C27.6583 45.3003 26.9624 45.9135 26.9624 46.6938V48.6168C26.9624 49.425 26.3222 50.066 25.515 50.066C24.7078 50.066 24.0676 49.425 24.0676 48.6168V46.7217C24.0676 45.9413 23.3995 45.3282 22.5645 45.3003H22.5367C21.7016 45.3003 21.0057 45.9135 21.0057 46.6938V46.7217V51.0972C21.0057 51.9054 20.3655 52.5464 19.5583 52.5464C18.7511 52.5464 18.1109 51.9054 18.1109 51.0972V27.1852C17.9995 20.3015 24.0397 16.1211 31.4995 16.1211ZM26.0995 22.8934C24.5408 22.8934 23.2882 24.1475 23.2882 25.7082C23.2882 27.2688 24.5408 28.523 26.0995 28.523C27.6583 28.523 28.9109 27.2688 28.9109 25.7082C28.9109 24.1475 27.6583 22.8934 26.0995 22.8934ZM36.0645 22.8934C34.5057 22.8934 33.2531 24.1475 33.2531 25.7082C33.2531 27.2688 34.5057 28.523 36.0645 28.523C37.6232 28.523 38.8758 27.2688 38.8758 25.7082C38.8758 24.1475 37.6232 22.8934 36.0645 22.8934Z" fill="#FF5C3E"/>
<path opacity="0.2563" fill-rule="evenodd" clip-rule="evenodd" d="M19.4425 29.6367C19.8322 29.6367 20.1662 29.9712 20.1662 30.3613V33.622C20.1662 34.0122 19.8322 34.3466 19.4425 34.3466C19.0528 34.3466 18.7188 34.0122 18.7188 33.622V30.3613C18.7188 29.9712 19.0249 29.6367 19.4425 29.6367Z" fill="#FF5C3E"/>
<path opacity="0.2563" fill-rule="evenodd" clip-rule="evenodd" d="M44.0831 34.3477C44.4728 34.3477 44.8068 34.6821 44.8068 35.0723V41.1756C44.8068 41.5658 44.4728 41.9002 44.0831 41.9002C43.6934 41.9002 43.3594 41.5658 43.3594 41.1756V35.0723C43.3594 34.6821 43.6934 34.3477 44.0831 34.3477Z" fill="#FF5C3E"/>
<path opacity="0.2563" fill-rule="evenodd" clip-rule="evenodd" d="M44.0831 31.1992C44.4728 31.1992 44.8068 31.5337 44.8068 31.9238V32.5927C44.8068 32.9829 44.4728 33.3174 44.0831 33.3174C43.6934 33.3174 43.3594 32.9829 43.3594 32.5927V31.9238C43.3594 31.5058 43.6934 31.1992 44.0831 31.1992Z" fill="#FF5C3E"/>
<path fill-rule="evenodd" clip-rule="evenodd" d="M31.5519 32.9259C32.7767 32.9259 33.6952 31.9226 33.6952 31.2259C33.6952 30.9472 33.5282 30.6964 33.2777 30.6685C32.888 30.6128 32.3035 30.8357 31.5519 30.8357C30.8561 30.8357 30.4107 30.6406 29.8818 30.6406C29.3252 30.6406 29.353 31.2816 29.4365 31.5324C29.6313 32.2292 30.2994 32.9259 31.5519 32.9259Z" fill="#FF5C3E"/>
<path fill-rule="evenodd" clip-rule="evenodd" d="M31.5798 32.3407C32.8323 32.3407 33.7509 31.421 33.7509 30.7522C33.7509 30.5013 33.5839 30.2784 33.3334 30.2505C32.9437 30.1948 32.3313 30.4177 31.5798 30.4177C30.8561 30.4177 30.4385 30.2227 29.8818 30.2227C29.3252 30.2227 29.353 30.8358 29.4365 31.0587C29.6313 31.6997 30.3272 32.3407 31.5798 32.3407Z" fill="#FF5C3E"/>
<path fill-rule="evenodd" clip-rule="evenodd" d="M26.5183 22.4199C27.9379 22.4199 29.107 23.8413 29.107 25.5971C29.107 27.3529 27.9379 28.7742 26.5183 28.7742C25.0988 28.7742 23.9297 27.3529 23.9297 25.5971C23.9297 23.8413 25.0709 22.4199 26.5183 22.4199ZM26.5183 22.7544C25.2379 22.7544 24.208 24.0364 24.208 25.5971C24.208 27.1578 25.2379 28.4398 26.5183 28.4398C27.7988 28.4398 28.8286 27.1578 28.8286 25.5971C28.8286 24.0364 27.7709 22.7544 26.5183 22.7544Z" fill="#FF5C3E"/>
<path fill-rule="evenodd" clip-rule="evenodd" d="M36.5105 22.4199C37.9301 22.4199 39.0992 23.8413 39.0992 25.5971C39.0992 27.3529 37.9301 28.7742 36.5105 28.7742C35.0909 28.7742 33.9219 27.3529 33.9219 25.5971C33.9219 23.8413 35.0909 22.4199 36.5105 22.4199ZM36.5105 22.7544C35.2301 22.7544 34.2002 24.0364 34.2002 25.5971C34.2002 27.1578 35.2301 28.4398 36.5105 28.4398C37.7909 28.4398 38.8208 27.1578 38.8208 25.5971C38.8208 24.0364 37.7909 22.7544 36.5105 22.7544Z" fill="#FF5C3E"/>
<path fill-rule="evenodd" clip-rule="evenodd" d="M26.5134 22.7539C27.7938 22.7539 28.8237 24.0359 28.8237 25.5966C28.8237 25.6523 28.8237 25.7081 28.8237 25.7638V25.931C28.8237 24.3425 27.8217 23.0326 26.5691 23.0326C25.3165 23.0326 24.3145 24.3146 24.3145 25.931C24.3145 26.2376 24.3423 26.5442 24.4258 26.8229C24.2866 26.4606 24.2031 26.0425 24.2031 25.6245C24.2031 24.0359 25.233 22.7539 26.5134 22.7539Z" fill="#FF5C3E"/>
<path fill-rule="evenodd" clip-rule="evenodd" d="M36.5134 22.7539C37.7938 22.7539 38.8237 24.0359 38.8237 25.5966C38.8237 25.6523 38.8237 25.7081 38.8237 25.7638V25.931C38.8237 24.3425 37.8217 23.0326 36.5691 23.0326C35.3165 23.0326 34.3145 24.3146 34.3145 25.931C34.3145 26.2376 34.3423 26.5442 34.4258 26.8229C34.2866 26.4606 34.2031 26.0425 34.2031 25.6245C34.2031 24.0359 35.233 22.7539 36.5134 22.7539Z" fill="#FF5C3E"/>
</svg>
