<svg width="64" height="64" viewBox="0 0 64 64" fill="none" xmlns="http://www.w3.org/2000/svg">
<path d="M64 30.2427C64 31.4155 64 32.5897 64 33.7626C63.9328 33.8021 63.9394 33.868 63.9354 33.9326C63.9249 34.1553 63.9196 34.3793 63.8985 34.602C63.8089 35.5733 63.6903 36.5392 63.5256 37.5012C63.0485 40.2937 62.2012 42.9702 61.0047 45.5334C60.2601 47.1292 59.389 48.6566 58.3836 50.1062C57.158 51.876 55.7862 53.522 54.2272 55.0098C53.7383 55.4776 53.2428 55.9363 52.7289 56.3764C51.846 57.1328 50.9222 57.8379 49.9589 58.4889C48.624 59.3916 47.2324 60.1968 45.7749 60.8913C44.6376 61.4329 43.474 61.9086 42.2814 62.3145C40.8213 62.8113 39.3296 63.1974 37.8115 63.4742C37.0248 63.6178 36.2341 63.7325 35.4394 63.8142C34.9255 63.8669 34.4129 63.9209 33.8963 63.9367C33.841 63.9381 33.7896 63.946 33.7579 64C32.5851 64 31.4109 64 30.2381 64C30.2065 63.946 30.1551 63.9367 30.0997 63.9367C29.9403 63.9394 29.7808 63.9183 29.6214 63.9091C28.6581 63.8498 27.7014 63.7312 26.7512 63.5717C24.992 63.2778 23.267 62.8469 21.5789 62.2631C19.958 61.7017 18.3938 61.0151 16.8823 60.206C15.7107 59.5787 14.5827 58.8816 13.5008 58.112C11.8812 56.9602 10.375 55.6793 9.00185 54.2415C8.54194 53.7605 8.09126 53.2716 7.65638 52.7669C6.8578 51.8418 6.12247 50.8679 5.43985 49.8558C4.62546 48.6474 3.90199 47.3875 3.25759 46.0789C2.63559 44.8138 2.10056 43.5131 1.64988 42.1795C1.21501 40.8894 0.868426 39.5755 0.608821 38.2392C0.428283 37.3128 0.282008 36.3824 0.187127 35.4428C0.135733 34.9289 0.0764321 34.4162 0.0632542 33.8996C0.0619364 33.8443 0.0540296 33.7929 0 33.7613C0 32.5884 0 31.4142 0 30.2414C0.0540296 30.2097 0.0632542 30.1583 0.0632542 30.103C0.064572 29.8038 0.102788 29.5087 0.123873 29.2108C0.180538 28.4399 0.279372 27.6742 0.401927 26.9112C0.703702 25.0439 1.15834 23.2147 1.78693 21.4291C2.24947 20.1152 2.79504 18.8369 3.42099 17.5929C4.0878 16.2659 4.8508 14.9981 5.69287 13.7765C6.74184 12.2544 7.9318 10.8496 9.21534 9.52258C9.59354 9.1325 9.99811 8.7701 10.3961 8.39979C11.0827 7.76065 11.8035 7.16104 12.548 6.59043C13.9726 5.49927 15.4762 4.52935 17.0641 3.69254C18.5862 2.8913 20.1596 2.20867 21.7897 1.66046C23.0851 1.22557 24.4029 0.873716 25.7444 0.612787C26.6761 0.430928 27.6117 0.283332 28.5566 0.187131C29.0705 0.135736 29.5832 0.0764336 30.0997 0.0632554C30.1551 0.0619376 30.2065 0.0540307 30.2381 0C31.4109 0 32.5851 0 33.7579 0C33.7935 0.0606198 33.8515 0.0619376 33.9121 0.0632554C34.4827 0.0764336 35.0494 0.135736 35.6147 0.200309C36.8231 0.33868 38.0197 0.54426 39.2057 0.814414C41.6344 1.36922 43.9629 2.20472 46.1926 3.30905C47.5895 4.00091 48.9258 4.79555 50.208 5.68376C51.7445 6.74856 53.1743 7.94251 54.5066 9.25111C55.1444 9.87707 55.7467 10.5413 56.3291 11.2199C57.1277 12.1516 57.8683 13.1268 58.5562 14.1429C59.5287 15.5819 60.3668 17.0948 61.0956 18.6709C61.5884 19.737 62.0167 20.8282 62.3857 21.9417C62.7955 23.1778 63.1276 24.435 63.378 25.7133C63.5612 26.6556 63.714 27.6018 63.8102 28.5572C63.8616 29.0711 63.9196 29.5838 63.9341 30.1004C63.9381 30.161 63.946 30.2124 64 30.2427ZM43.536 45.1973C43.5992 45.167 43.6322 45.1512 43.6651 45.1341C44.5599 44.6504 45.452 44.1602 46.3521 43.6858C46.8226 43.438 47.036 43.0651 47.036 42.5366C47.0321 36.2282 47.0334 29.9185 47.0347 23.6101C47.0347 22.4886 46.5564 21.6505 45.5812 21.0878C43.2526 19.741 40.9281 18.3862 38.6022 17.0342C36.2894 15.6913 33.978 14.3458 31.664 13.0043C30.6598 12.4218 29.57 13.0491 29.57 14.2074C29.57 16.7245 29.5713 19.2415 29.566 21.7586C29.566 21.8943 29.6108 21.9628 29.7242 22.0313C33.8699 24.5141 38.0144 26.9995 42.1589 29.4863C42.3513 29.6022 42.5358 29.7287 42.6965 29.8869C43.279 30.4535 43.5386 31.148 43.5373 31.9572C43.5333 36.2928 43.5347 40.6284 43.536 44.9641C43.536 45.0313 43.536 45.0998 43.536 45.1973ZM40.8543 39.6361C40.8543 37.5302 40.8556 35.423 40.8529 33.3172C40.8529 33.1366 40.8464 32.9534 40.816 32.7755C40.6658 31.8807 40.169 31.239 39.3876 30.7843C36.0667 28.855 32.7511 26.9165 29.4343 24.9806C28.1086 24.2071 26.7829 23.4361 25.4598 22.6613C25.1462 22.4781 24.8141 22.4109 24.4609 22.486C23.8165 22.6217 23.3948 23.1581 23.3935 23.8368C23.3922 26.4922 23.3948 29.1476 23.3882 31.803C23.3882 31.9848 23.4515 32.0745 23.5977 32.1614C27.6276 34.5678 31.6547 36.9781 35.6832 39.3857C36.6241 39.9484 37.0933 40.7694 37.092 41.8685C37.088 44.1879 37.0906 46.5072 37.0906 48.8266C37.0906 48.8688 37.092 48.9123 37.0906 48.9544C37.0867 49.0375 37.1275 49.044 37.1895 49.0137C37.233 48.9926 37.2751 48.9689 37.316 48.9465C38.2674 48.4115 39.2149 47.8672 40.173 47.3441C40.646 47.0858 40.8595 46.7155 40.8582 46.1791C40.849 43.9981 40.8543 41.8171 40.8543 39.6361ZM34.4076 46.3162C34.4076 45.2659 34.4116 44.2155 34.4063 43.1652C34.401 42.1057 33.9319 41.3032 33.0187 40.7708C28.3589 38.0508 23.6966 35.3334 19.0355 32.6148C18.0538 32.0428 16.9521 32.6583 16.9468 33.7942C16.9389 35.8421 16.9389 37.8887 16.9468 39.9366C16.9521 41.178 17.5016 42.1268 18.5572 42.7738C21.8134 44.7704 25.0737 46.7616 28.3313 48.7554C29.5212 49.4842 30.7125 50.2116 31.9025 50.943C32.2675 51.1671 32.6576 51.2633 33.0793 51.1855C33.8779 51.0392 34.4023 50.4014 34.405 49.5633C34.4116 48.4813 34.4076 47.3994 34.4076 46.3162Z" fill="white"/>
<path d="M43.5325 45.197C43.5325 45.0995 43.5325 45.0309 43.5325 44.9637C43.5325 40.6281 43.5298 36.2925 43.5338 31.9568C43.5351 31.1477 43.2755 30.4532 42.693 29.8865C42.5309 29.7297 42.3478 29.6019 42.1554 29.4859C38.0109 27.0005 33.8664 24.5138 29.7207 22.031C29.606 21.9625 29.5612 21.894 29.5625 21.7582C29.5665 19.2412 29.5652 16.7241 29.5665 14.2071C29.5665 13.0501 30.655 12.4215 31.6605 13.0039C33.9745 14.3455 36.2859 15.6896 38.5986 17.0338C40.9246 18.3859 43.2491 19.7406 45.5777 21.0874C46.5529 21.6515 47.0312 22.4883 47.0312 23.6098C47.0299 29.9182 47.0299 36.2279 47.0325 42.5363C47.0325 43.0647 46.819 43.4377 46.3486 43.6854C45.4485 44.1599 44.5564 44.6501 43.6616 45.1337C43.63 45.1509 43.5957 45.1667 43.5325 45.197Z" fill="#FF5C3E"/>
<path d="M40.8567 39.6354C40.8567 41.8164 40.8514 43.9974 40.8606 46.1784C40.8633 46.7135 40.6485 47.0851 40.1754 47.3434C39.2173 47.8666 38.2698 48.4108 37.3184 48.9459C37.2762 48.9696 37.2341 48.992 37.1919 49.0131C37.13 49.0434 37.0891 49.0368 37.0931 48.9538C37.0957 48.9116 37.0931 48.8681 37.0931 48.8259C37.0931 46.5066 37.0904 44.1872 37.0944 41.8678C37.0957 40.7688 36.6266 39.9478 35.6856 39.3851C31.6571 36.9774 27.63 34.5671 23.6002 32.1608C23.4539 32.0738 23.3906 31.9842 23.3906 31.8023C23.3985 29.1469 23.3946 26.4915 23.3959 23.8361C23.3959 23.1574 23.8176 22.6211 24.4633 22.4853C24.8165 22.4102 25.1486 22.4774 25.4622 22.6606C26.7866 23.4355 28.1123 24.2077 29.4367 24.9799C32.7536 26.9158 36.0691 28.8543 39.39 30.7836C40.1714 31.237 40.6669 31.8801 40.8185 32.7749C40.8488 32.9528 40.854 33.1359 40.8554 33.3165C40.858 35.4224 40.8567 37.5296 40.8567 39.6354Z" fill="#FF5C3E"/>
<path d="M34.4034 46.3155C34.4034 47.3974 34.4073 48.4806 34.4021 49.5626C34.3981 50.3994 33.875 51.0385 33.0764 51.1848C32.6547 51.2613 32.2646 51.1664 31.8996 50.9423C30.7109 50.2109 29.5196 49.4835 28.3284 48.7548C25.0695 46.7609 21.8105 44.7697 18.5543 42.7732C17.4987 42.1261 16.9492 41.1773 16.9439 39.9359C16.9347 37.888 16.936 35.8414 16.9439 33.7935C16.9479 32.6576 18.0509 32.0408 19.0326 32.6141C23.6937 35.3327 28.356 38.0488 33.0158 40.7701C33.929 41.3025 34.3981 42.105 34.4034 43.1646C34.4087 44.2149 34.4034 45.2652 34.4034 46.3155Z" fill="#FF5C3E"/>
</svg>
