<svg width="63" height="65" viewBox="0 0 63 65" fill="none" xmlns="http://www.w3.org/2000/svg">
<ellipse cx="31.4381" cy="32.8838" rx="31.4381" ry="31.3428" fill="#FF5C3E"/>
<path d="M10.1435 9.69829C8.17215 6.48437 6.20727 3.282 4.24238 0.0809261C4.27846 0.0539508 4.31454 0.0269754 4.34932 0C4.6418 0.341688 4.94459 0.675669 5.22676 1.02635C7.32951 3.62755 9.37556 6.27499 11.5414 8.82223C13.7756 11.4491 16.1257 13.9797 18.4256 16.5513C20.0027 18.315 21.5836 20.0735 23.1555 21.8411C23.8268 22.5964 23.7985 23.3915 23.104 24.1532C22.3 25.0344 21.2319 25.3016 20.1096 25.4121C18.7606 25.5444 17.9154 26.2881 17.7002 27.6305C17.6165 28.1546 17.5714 28.6864 17.5417 29.2169C17.4735 30.4321 17.0702 31.5406 16.5368 32.6197C16.2353 33.2285 15.9312 33.8464 15.7276 34.4925C15.113 36.445 15.7714 38.2125 17.5508 39.5151C18.0146 39.8542 18.5081 40.1561 18.9642 40.5067C20.2977 41.5318 20.375 43.0964 19.133 44.237C17.8716 45.3957 16.3023 45.9339 14.6891 46.3951C14.1544 46.5479 13.9083 46.4452 13.67 45.9365C13.3749 45.3045 12.9446 44.7367 12.5799 44.1369C11.5685 42.4747 11.0235 40.675 11.5685 38.7765C11.8391 37.8323 12.455 36.9447 13.0683 36.1483C14.3193 34.5259 15.6671 32.9665 16.3139 30.9883C16.6089 30.0878 16.7352 29.1283 16.8911 28.188C17.0779 27.0563 17.3794 26.0081 18.2336 25.1539C18.8006 24.5874 18.847 23.8616 18.454 23.1487C16.931 20.3908 15.4429 17.6136 13.8542 14.8955C13.2924 13.9347 12.4794 13.119 11.6523 12.3046C11.7205 12.4562 11.7785 12.6129 11.8597 12.7581C13.7988 16.2572 15.7392 19.7563 17.6796 23.2541C18.0984 24.0081 18.0687 24.2547 17.4799 24.8867C16.5754 25.8565 16.2262 27.0691 16.1399 28.3319C15.966 30.8624 14.7239 32.874 13.2139 34.7931C12.4794 35.727 11.6677 36.6505 11.1652 37.7077C10.1203 39.9069 10.6318 42.0713 11.7321 44.1266C12.1831 44.9692 12.7075 45.7734 13.1765 46.6083C13.3092 46.8434 13.3633 47.1221 13.4651 47.415C15.4545 47.8607 17.4413 48.0984 19.3082 46.8806C19.4383 46.7959 19.6329 46.7599 19.7914 46.7727C21.8851 46.9461 23.7366 47.6308 25.1539 49.2686C25.5842 49.7657 26.0468 50.2513 26.5648 50.6508C27.6471 51.4844 29.0502 51.496 30.0874 50.7561C31.1607 49.9892 31.3578 48.3861 30.4069 47.4728C30.4919 47.7824 30.5718 48.0059 30.6131 48.2371C30.8437 49.5319 29.6996 50.6007 28.4201 50.2924C27.3275 50.0303 26.6073 49.0811 26.6408 47.9494C26.6691 46.9539 27.3791 46.1908 28.5065 45.9994C29.7485 45.7888 30.8476 46.2191 31.6116 47.1324C32.3228 47.9815 32.8215 49.013 33.3716 49.9879C33.726 50.6161 33.9566 51.3149 34.3277 51.9315C35.7372 54.2693 38.0577 54.7921 40.3537 53.2905C41.7556 52.3733 43.3004 51.6476 44.4201 50.3386C44.5116 50.232 44.6688 50.1768 44.8002 50.1087C48.6204 48.1022 50.3212 43.6873 48.8085 39.6577C48.2661 38.2125 47.2727 37.0911 46.0023 36.2613C44.6481 35.3776 43.2373 34.5747 41.8148 33.8001C40.7944 33.2452 39.8783 32.6376 39.5794 31.4173C39.5678 31.4263 39.6077 31.3801 39.6245 31.3878C41.9991 32.4424 44.4033 33.4379 46.7354 34.5812C48.1656 35.2825 49.2866 36.3705 49.6151 38.0443C49.6718 38.3294 49.695 38.621 49.7568 39.077C50.3109 38.4129 50.5673 37.7565 50.727 37.0706C51.4434 34.0147 50.8997 31.2709 48.5689 29.0409C47.1735 27.7063 45.4302 26.9946 43.5607 26.626C41.7414 26.2676 39.9041 26.0043 38.077 25.6818C37.6802 25.6125 37.2898 25.4917 36.9071 25.3594C35.5349 24.888 34.3483 24.2316 34.3225 22.5437C34.7013 22.7749 35.1213 23.0704 35.5749 23.3003C37.3246 24.1828 39.2186 24.459 41.1461 24.59C42.2735 24.6671 43.4048 24.7236 44.527 24.8559C45.9404 25.0229 47.0562 25.7088 47.8035 26.9433C47.8474 27.0152 47.904 27.0794 47.9569 27.1437C47.9672 27.1565 47.9942 27.1552 48.2017 27.2143C48.002 26.477 47.9118 25.7923 47.6386 25.1899C45.514 20.4897 41.9102 17.6316 36.7719 16.9161C35.2128 16.699 33.5868 16.9033 31.9956 16.9855C31.5021 17.0112 31.1735 16.9521 30.8437 16.5565C29.3839 14.8082 27.6728 13.3734 25.4206 12.7812C24.5058 12.541 23.5279 12.5269 22.577 12.4292C22.2742 12.3984 22.014 12.4716 22.0719 12.884C22.0835 12.9687 22.0178 13.0689 21.9714 13.155C21.849 13.3849 21.6197 13.6046 21.6055 13.8384C21.4767 15.9553 22.0797 17.8705 23.2947 19.6021C23.4029 19.755 23.506 19.9117 23.6773 20.1622C22.8476 19.886 22.1531 19.6239 21.6171 19.0266C18.9848 16.094 16.3409 13.1704 13.697 10.2468C13.1121 9.60067 12.5142 8.9661 11.9215 8.32512C21.5102 0.15286 38.8553 -1.98462 51.7127 8.80168C65.0198 19.9643 66.803 39.6628 55.77 52.8923C44.5373 66.3659 24.8576 68.0409 11.6445 57.2597C4.25398 51.2288 0.319057 43.3456 0.0175602 33.8181C-0.282648 24.3112 3.27347 16.3111 10.1435 9.69829Z" fill="white"/>
<path d="M49.8936 35.8931C47.8463 33.3728 44.9266 32.5353 42.2157 31.3214C40.7224 30.6534 39.2497 29.9174 37.844 29.0837C36.7398 28.4299 35.9693 27.4241 35.6562 26.1344C35.7013 26.1074 35.7452 26.0625 35.7671 26.0715C37.7925 26.8769 39.9532 27.0387 42.074 27.392C43.807 27.6797 45.4936 28.1023 46.9791 29.1146C49.194 30.6239 50.217 32.9155 49.8936 35.8931Z" fill="white"/>
<path d="M31.8594 18.1575C35.8677 16.3296 44.3522 19.9212 45.7669 23.9572C43.3446 23.6965 40.9082 23.4896 38.4897 23.1582C36.512 22.8872 34.895 21.8853 33.6284 20.3412C33.037 19.6232 32.4572 18.8974 31.8594 18.1575Z" fill="white"/>
<path d="M46.3955 47.5407C46.3143 46.9139 46.2808 46.323 46.1572 45.7526C45.7178 43.7269 44.5285 42.0763 43.3973 40.3987C42.4812 39.0409 41.5033 37.7114 41.0665 36.0993C40.9364 35.6189 40.9054 35.1115 40.8281 34.6169C40.8784 34.5797 40.9286 34.5412 40.9789 34.5039C42.1385 35.159 43.3123 35.7897 44.4538 36.4757C45.9381 37.3672 47.2781 38.4295 47.8643 40.1405C48.7598 42.7571 48.2934 45.1643 46.6171 47.3506C46.5707 47.4123 46.4973 47.4547 46.3955 47.5407Z" fill="white"/>
<path d="M26.0726 49.213C24.7314 47.6124 23.2277 46.5861 21.125 46.2264C21.5644 45.9104 21.8697 45.6702 22.1944 45.4595C24.1657 44.1827 26.2865 43.3567 28.6753 43.3876C31.3385 43.421 33.2699 44.6798 34.0623 46.9226C34.2736 47.5199 34.3857 48.1545 34.5004 48.7801C34.6653 49.6754 34.7903 50.5784 34.8792 51.5136C34.5816 50.8495 34.2685 50.1918 33.9876 49.5212C33.3885 48.0877 32.6579 46.7543 31.2831 45.9001C30.5423 45.4403 29.7434 45.1936 28.857 45.2244C26.7439 45.2989 25.5573 46.8905 26.0726 49.213Z" fill="white"/>
<path d="M22.0472 13.6453C24.217 13.6055 26.0955 15.1302 26.7243 17.409C26.8763 17.9614 27.0245 18.5163 27.1495 19.0751C27.411 20.2466 28.0153 21.2357 28.7587 22.1554C28.8592 22.28 28.9468 22.4161 29.0577 22.5703C25.7064 22.8696 21.4133 18.2504 22.0472 13.6453Z" fill="white"/>
<path d="M26.8906 40.9939C28.1134 40.1949 29.3297 39.789 30.6026 39.5436C31.6063 39.3497 32.6229 39.2186 33.6292 39.0362C34.0467 38.9605 34.4641 38.8525 34.8635 38.71C37.5603 37.7568 38.7199 35.4704 38.0164 32.5172C37.988 32.3964 37.9558 32.277 37.9133 32.1074C39.0033 33.1119 39.3448 35.3368 38.6606 36.8846C37.7574 38.9296 36.0296 39.8404 33.9359 40.1255C32.4593 40.3259 30.9583 40.3426 29.4753 40.5019C28.6597 40.5893 27.857 40.8051 26.8906 40.9939Z" fill="white"/>
<path d="M25.2016 30.016C24.0382 30.0212 23.5241 29.4007 23.7457 28.2601C23.9505 27.2042 24.7365 26.4476 25.708 26.3705C26.7439 26.2883 27.6999 26.9164 28.0439 27.8837C28.2411 28.4386 28.1393 28.9653 27.6445 29.2222C26.8895 29.614 26.0623 29.8683 25.266 30.1817C25.2441 30.1265 25.2222 30.0713 25.2016 30.016ZM25.7634 28.4309C26.1422 28.3718 26.6705 28.3924 26.7594 27.7745C26.8122 27.4058 26.3226 26.9845 25.8935 27.0179C25.4104 27.0552 25.1127 27.3352 25.0689 27.8259C25.0316 28.2575 25.2673 28.445 25.7634 28.4309Z" fill="white"/>
</svg>
