<svg width="251" height="169" viewBox="0 0 251 169" fill="none" xmlns="http://www.w3.org/2000/svg">
<g clip-path="url(#clip0_84_1262)">
<path d="M162.297 38.3127C167.05 38.3127 170.903 34.4651 170.903 29.7189C170.903 24.9726 167.05 21.125 162.297 21.125C157.544 21.125 153.691 24.9726 153.691 29.7189C153.691 34.4651 157.544 38.3127 162.297 38.3127Z" fill="#F2F2F2"/>
<path d="M182.329 114.905C180.984 111.817 178.914 109.104 174.772 106.822C172.632 105.613 170.332 104.709 167.941 104.136C169.55 103.39 171.03 102.392 172.325 101.182C174.229 99.4822 175.672 97.3298 176.52 94.9244C177.301 92.48 177.62 89.912 177.461 87.3511C177.166 82.8393 176.278 78.4618 173.912 75.3197C171.545 72.1775 168.21 69.7605 163.8 68.0686C160.411 66.7795 156.942 65.9739 151.563 65.6784V48.5176L140.806 55.2315V65.7053H132.2V54.6944L121.174 48.5176V65.7053H97.75L105.28 78.5961C107.606 78.5988 109.182 78.8136 109.986 79.2138C110.737 79.5346 111.354 80.1035 111.734 80.8251C112.084 81.4965 112.245 83.081 112.245 85.5249V132.039C112.245 134.456 112.084 136.014 111.734 136.712C111.385 137.41 111.197 138.028 110.363 138.404C109.529 138.78 109.502 138.753 107.19 138.753H107.163L97.75 151.644H121.147V168.832H132.173V151.644H140.779V168.832H151.536V151.536C158.529 151.187 163.504 150.274 167.511 148.77C172.701 146.837 176.682 144.017 179.532 140.311C182.383 136.605 183.539 130.938 183.781 126.561C183.97 122.666 183.539 117.644 182.329 114.905ZM132.173 80.2074H132.176V79.8502H139.695C143.926 79.8502 158.023 78.443 158.257 89.94C158.494 101.437 139.695 100.967 139.695 100.967H132.176V100.081H132.173V80.2074ZM132.173 112.972H140.779C142.527 112.972 148.541 113.237 150.73 113.337C151.622 113.369 152.506 113.526 153.354 113.804C153.664 113.909 153.957 114.027 154.274 114.159C155.601 114.587 156.852 115.219 157.983 116.033C158.72 116.519 159.368 117.128 159.9 117.832C160.131 118.15 160.342 118.481 160.535 118.823C161.044 119.684 161.422 120.615 161.656 121.587C161.913 122.525 162.046 123.493 162.052 124.466C162.052 126.558 161.664 128.29 160.71 129.756C159.416 131.921 157.294 133.454 154.906 134.537C148.731 137.34 140.779 137.142 140.779 137.142H132.173V112.972Z" fill="white"/>
<path opacity="0.3" d="M164.624 30.0794C164.543 29.8782 164.393 29.712 164.201 29.6103C164.081 29.5403 163.952 29.4878 163.818 29.4544C163.908 29.4108 163.991 29.3529 164.063 29.283C164.171 29.1833 164.252 29.0585 164.299 28.9198C164.342 28.7777 164.36 28.6288 164.351 28.4803C164.351 28.2337 164.282 27.9921 164.152 27.7821C164.008 27.5901 163.811 27.444 163.586 27.3612C163.366 27.2764 163.134 27.2294 162.9 27.2225V26.2266L162.297 26.6162V27.2241H161.814V26.585L161.196 26.2266V27.2241H159.883L160.305 27.9722C160.394 27.9661 160.484 27.9783 160.569 28.008C160.611 28.027 160.646 28.0601 160.667 28.1016C160.692 28.19 160.702 28.2824 160.695 28.3743V31.0738C160.702 31.1652 160.692 31.257 160.667 31.345C160.647 31.3855 160.637 31.4214 160.59 31.4432C160.543 31.465 160.542 31.4634 160.412 31.4634H160.41L159.883 32.2116H161.194V33.2091H161.813V32.2116H162.295V33.2091H162.898V32.2053C163.203 32.1999 163.506 32.1457 163.794 32.0448C164.061 31.9494 164.295 31.7789 164.467 31.5538C164.618 31.3143 164.7 31.0385 164.706 30.7558C164.722 30.5273 164.694 30.2977 164.624 30.0794ZM161.813 28.0657H161.813V28.045H162.234C162.471 28.045 163.262 27.9633 163.275 28.6306C163.288 29.2978 162.234 29.2705 162.234 29.2705H161.813V29.2191H161.813V28.0657ZM161.813 29.9672H162.295C162.393 29.9672 162.73 29.9826 162.853 29.9884C162.903 29.9903 162.952 29.9994 163 30.0155C163.017 30.0216 163.034 30.0285 163.052 30.0361C163.126 30.0611 163.196 30.0978 163.259 30.1449C163.301 30.1733 163.337 30.2086 163.367 30.2493C163.413 30.3154 163.446 30.3893 163.465 30.4672C163.48 30.5218 163.487 30.5779 163.488 30.6343C163.493 30.7417 163.466 30.8483 163.412 30.9413C163.335 31.0649 163.221 31.1618 163.087 31.2188C162.836 31.3215 162.566 31.3729 162.295 31.37H161.813V29.9672Z" fill="#F0B270"/>
<path d="M214.643 127.779C216.385 127.779 217.797 126.368 217.797 124.629C217.797 122.889 216.385 121.479 214.643 121.479C212.901 121.479 211.488 122.889 211.488 124.629C211.488 126.368 212.901 127.779 214.643 127.779Z" fill="#FF6584"/>
<path d="M239.512 158.918V123.052" stroke="white" stroke-width="2" stroke-miterlimit="10"/>
<path d="M239.509 128.124C242.314 128.124 244.588 125.854 244.588 123.052C244.588 120.251 242.314 117.98 239.509 117.98C236.704 117.98 234.43 120.251 234.43 123.052C234.43 125.854 236.704 128.124 239.509 128.124Z" fill="white"/>
<path d="M229.508 143.134C222.171 154.369 224.182 168.658 224.182 168.658C224.182 168.658 238.086 164.732 245.423 153.497C252.759 142.262 250.749 127.973 250.749 127.973C250.749 127.973 236.844 131.899 229.508 143.134Z" fill="white"/>
<path d="M224.141 168.527C224.141 168.527 223.963 168.499 223.634 168.432C223.372 168.379 223.011 168.303 222.57 168.199C218.629 167.271 208.153 164.135 201.304 155.889C192.731 145.564 193.092 131.139 193.092 131.139C193.092 131.139 206.2 133.266 214.837 142.538C215.211 142.936 215.576 143.349 215.93 143.777C223.389 152.761 224.084 164.848 224.139 167.837C224.147 168.284 224.141 168.527 224.141 168.527Z" fill="#F0B270"/>
<path d="M218.856 143.134C226.193 154.369 224.183 168.658 224.183 168.658C224.183 168.658 210.278 164.732 202.941 153.497C195.605 142.262 197.615 127.973 197.615 127.973C197.615 127.973 211.52 131.899 218.856 143.134Z" stroke="white" stroke-width="2" stroke-miterlimit="10"/>
<path opacity="0.1" d="M224.14 167.836C223.946 168.069 223.775 168.269 223.635 168.432C223.323 168.787 223.146 168.972 223.146 168.972C223.146 168.972 222.932 168.703 222.571 168.198C220.589 165.44 214.215 155.631 214.707 144.3C214.733 143.706 214.777 143.118 214.838 142.537C215.212 142.936 215.576 143.349 215.93 143.776C223.389 152.76 224.085 164.848 224.14 167.836Z" fill="black"/>
<path d="M235.016 145.12C234.437 158.52 224.476 168.973 224.476 168.973C224.476 168.973 215.455 157.701 216.035 144.301C216.615 130.901 226.576 120.447 226.576 120.447C226.576 120.447 235.596 131.72 235.016 145.12Z" fill="#F0B270"/>
<path d="M224.477 168.594L226.667 120.994" stroke="white" stroke-width="2" stroke-miterlimit="10"/>
<path d="M15.457 168.646H242.979" stroke="white" stroke-width="2" stroke-miterlimit="10"/>
<path d="M63.7805 110.596C70.127 110.596 75.2719 105.459 75.2719 99.1209C75.2719 92.7832 70.127 87.6455 63.7805 87.6455C57.4339 87.6455 52.2891 92.7832 52.2891 99.1209C52.2891 105.459 57.4339 110.596 63.7805 110.596Z" fill="#F0B270"/>
<path d="M44.2453 137.603C50.5918 137.603 55.7367 132.465 55.7367 126.128C55.7367 119.79 50.5918 114.652 44.2453 114.652C37.8988 114.652 32.7539 119.79 32.7539 126.128C32.7539 132.465 37.8988 137.603 44.2453 137.603Z" fill="#F0B270"/>
<path d="M20.2063 159.172C26.5528 159.172 31.6977 154.034 31.6977 147.696C31.6977 141.358 26.5528 136.221 20.2063 136.221C13.8597 136.221 8.71484 141.358 8.71484 147.696C8.71484 154.034 13.8597 159.172 20.2063 159.172Z" fill="#F0B270"/>
<path d="M20.1953 168.449V147.633" stroke="white" stroke-width="2" stroke-miterlimit="10"/>
<path d="M20.1978 150.577C21.8258 150.577 23.1455 149.259 23.1455 147.633C23.1455 146.007 21.8258 144.689 20.1978 144.689C18.5698 144.689 17.25 146.007 17.25 147.633C17.25 149.259 18.5698 150.577 20.1978 150.577Z" fill="white"/>
<path d="M20.1945 160.462C20.1945 160.462 19.7734 151.418 11.1406 152.469L20.1945 160.462Z" fill="white"/>
<path d="M63.7852 168.595V99.1631" stroke="white" stroke-width="2" stroke-miterlimit="10"/>
<path d="M63.7876 102.074C65.4156 102.074 66.7354 100.756 66.7354 99.1302C66.7354 97.5045 65.4156 96.1865 63.7876 96.1865C62.1596 96.1865 60.8398 97.5045 60.8398 99.1302C60.8398 100.756 62.1596 102.074 63.7876 102.074Z" fill="white"/>
<path d="M54.7329 152.308C56.3609 152.308 57.6807 150.99 57.6807 149.365C57.6807 147.739 56.3609 146.421 54.7329 146.421C53.1049 146.421 51.7852 147.739 51.7852 149.365C51.7852 150.99 53.1049 152.308 54.7329 152.308Z" fill="white"/>
<path d="M63.7843 114.166C63.7843 114.166 63.3632 105.122 54.7305 106.173L63.7843 114.166Z" fill="white"/>
<path d="M63.7843 139.807C63.7843 139.807 63.3632 130.762 54.7305 131.814L63.7843 139.807Z" fill="white"/>
<path d="M63.7843 167.786C63.7843 167.786 65.6793 150.205 54.7305 149.364" stroke="white" stroke-width="2" stroke-miterlimit="10"/>
<path d="M72.8423 152.308C74.4703 152.308 75.7901 150.99 75.7901 149.365C75.7901 147.739 74.4703 146.421 72.8423 146.421C71.2143 146.421 69.8945 147.739 69.8945 149.365C69.8945 150.99 71.2143 152.308 72.8423 152.308Z" fill="white"/>
<path d="M63.7855 167.786C63.7855 167.786 61.8905 150.205 72.8393 149.364" stroke="white" stroke-width="2" stroke-miterlimit="10"/>
<path d="M73.022 124.696C74.65 124.696 75.9698 123.378 75.9698 121.752C75.9698 120.127 74.65 118.809 73.022 118.809C71.394 118.809 70.0742 120.127 70.0742 121.752C70.0742 123.378 71.394 124.696 73.022 124.696Z" fill="white"/>
<path d="M63.9651 139.236C63.9651 139.236 62.0702 122.593 73.019 121.752" stroke="white" stroke-width="2" stroke-miterlimit="10"/>
<path d="M44.2578 168.497V126.115" stroke="white" stroke-width="2" stroke-miterlimit="10"/>
<path d="M44.2564 129.059C45.8844 129.059 47.2041 127.741 47.2041 126.116C47.2041 124.49 45.8844 123.172 44.2564 123.172C42.6284 123.172 41.3086 124.49 41.3086 126.116C41.3086 127.741 42.6284 129.059 44.2564 129.059Z" fill="white"/>
<path d="M44.257 138.104C44.257 138.104 43.8359 129.059 35.2031 130.11L44.257 138.104Z" fill="white"/>
<path d="M44.257 167.688C44.257 167.688 46.152 150.295 35.2031 149.454" stroke="white" stroke-width="2" stroke-miterlimit="10"/>
<path d="M35.2017 152.398C36.8297 152.398 38.1495 151.08 38.1495 149.454C38.1495 147.829 36.8297 146.511 35.2017 146.511C33.5737 146.511 32.2539 147.829 32.2539 149.454C32.2539 151.08 33.5737 152.398 35.2017 152.398Z" fill="white"/>
<path d="M206.13 104.109C208.803 104.109 210.971 101.945 210.971 99.2755C210.971 96.6057 208.803 94.4414 206.13 94.4414C203.456 94.4414 201.289 96.6057 201.289 99.2755C201.289 101.945 203.456 104.109 206.13 104.109Z" fill="#F2F2F2"/>
<path opacity="0.1" d="M154.909 134.536C148.734 137.34 140.782 137.141 140.782 137.141H132.176V135.5C135.683 134.523 140.532 133.918 145.891 133.918C148.908 133.908 151.922 134.114 154.909 134.536Z" fill="black"/>
<path opacity="0.1" d="M165.254 139.291C165.254 142.258 156.583 144.662 145.89 144.662C135.198 144.662 126.527 142.258 126.527 139.291C126.527 137.811 128.684 136.471 132.175 135.501V137.142H140.781C140.781 137.142 148.733 137.341 154.908 134.537C161.058 135.434 165.254 137.225 165.254 139.291Z" fill="black"/>
<path d="M148.364 105.847H140.125V114.089H148.364V105.847Z" fill="#2F2E41"/>
<path d="M143.19 111.675C143.19 111.675 143.872 114.058 142.679 114.228C141.938 114.344 141.236 114.636 140.633 115.08L142.849 117.974H146.941L149.498 115.42C149.498 115.42 146.088 112.866 146.77 111.334C147.452 109.802 143.19 111.675 143.19 111.675Z" fill="#FFB9B9"/>
<path opacity="0.1" d="M143.19 111.675C143.19 111.675 143.872 114.058 142.679 114.228C141.938 114.344 141.236 114.636 140.633 115.08L142.849 117.974H146.941L149.498 115.42C149.498 115.42 146.088 112.866 146.77 111.334C147.452 109.802 143.19 111.675 143.19 111.675Z" fill="black"/>
<path d="M144.211 141.298L148.132 142.66L150.86 142.83L150.689 140.447L145.063 138.785L144.211 141.298Z" fill="#FFB9B9"/>
<path d="M149.242 140.787C149.242 140.787 149.242 143.17 149.583 143.17C149.924 143.17 154.527 142.66 155.891 143.17C157.255 143.681 159.301 141.808 158.278 140.787C157.255 139.766 155.586 138.233 154.545 138.574C153.504 138.914 149.242 139.766 149.242 139.766L149.242 140.787Z" fill="#2F2E41"/>
<path d="M136.709 138.574C136.709 138.574 134.664 142.66 136.027 143.001C137.391 143.341 138.926 142.83 139.096 142.66C139.267 142.49 141.653 141.809 141.994 142.149C142.335 142.49 142.335 140.787 142.335 140.787L136.709 138.574Z" fill="#2F2E41"/>
<path d="M138.417 132.956C138.417 132.956 135.178 137.383 137.565 138.574C139.952 139.766 151.374 139.766 152.227 138.574C153.079 137.383 153.42 133.637 152.227 133.297C151.033 132.956 138.417 132.956 138.417 132.956Z" fill="#2F2E41"/>
<path opacity="0.2" d="M138.417 132.956C138.417 132.956 135.178 137.383 137.565 138.574C139.952 139.766 151.374 139.766 152.227 138.574C153.079 137.383 153.42 133.637 152.227 133.297C151.033 132.956 138.417 132.956 138.417 132.956Z" fill="black"/>
<path d="M144.554 112.867C146.72 112.867 148.475 111.113 148.475 108.951C148.475 106.788 146.72 105.035 144.554 105.035C142.388 105.035 140.633 106.788 140.633 108.951C140.633 111.113 142.388 112.867 144.554 112.867Z" fill="#FFB9B9"/>
<path d="M138.414 115.079L141.824 114.398C141.824 114.398 142.676 117.122 145.404 116.612C148.132 116.101 148.814 114.398 148.814 114.398C148.814 114.398 150.859 115.25 151.03 115.25C151.2 115.25 153.417 116.101 153.417 116.612C153.417 117.122 150.859 122.23 150.859 122.23L151.2 131.423L138.585 131.083L139.437 122.06L138.414 115.079Z" fill="#F0B270"/>
<path d="M136.54 119.506C136.54 119.506 135.517 128.529 136.199 129.21C136.881 129.891 139.609 131.764 139.609 131.764V129.721L138.245 127.167L139.609 121.208L136.54 119.506Z" fill="#FFB9B9"/>
<path d="M154.186 119.251C154.186 119.251 153.59 128.529 153.59 128.87C153.59 129.21 152.055 130.402 151.544 130.402C151.032 130.402 150.691 129.551 150.691 129.551L151.885 128.189L151.032 121.209L154.186 119.251Z" fill="#FFB9B9"/>
<path d="M152.564 132.274C152.564 132.274 160.236 128.018 160.406 132.274C160.577 136.531 156.485 138.233 156.485 138.233C156.485 138.233 145.915 141.398 145.489 140.241C145.063 139.084 144.21 137.212 144.892 137.041C145.574 136.871 146.426 136.531 146.767 136.871C147.108 137.212 151.371 134.317 151.371 134.317L152.564 132.274Z" fill="#2F2E41"/>
<path opacity="0.2" d="M156.145 131.764C156.145 131.764 154.61 132.445 154.099 132.955C153.587 133.466 151.371 134.317 151.371 134.317" stroke="black" stroke-width="2" stroke-miterlimit="10"/>
<path d="M139.44 115.421L138.417 115.08C138.417 115.08 134.666 118.996 135.859 120.017C137.053 121.039 137.735 121.379 138.076 121.72C138.417 122.06 140.122 122.23 140.122 122.23L139.44 115.421Z" fill="#F0B270"/>
<path d="M151.883 116.271L153.417 116.612C153.417 116.612 154.611 119.166 154.952 119.506C155.293 119.847 154.44 119.676 153.929 120.357C153.417 121.038 152.906 122.23 151.883 122.23C150.86 122.23 149.496 120.528 149.496 120.528L151.883 116.271Z" fill="#F0B270"/>
<path d="M138.757 133.807C138.757 133.807 132.278 129.21 130.062 132.615C127.846 136.02 139.609 140.617 141.314 141.298C143.019 141.979 144.553 142.66 144.553 142.66C144.553 142.66 146.088 138.915 146.088 138.234C146.088 137.553 144.894 137.553 144.553 137.553C144.212 137.553 142.678 137.212 142.337 136.701C141.996 136.191 138.757 133.807 138.757 133.807Z" fill="#2F2E41"/>
<path opacity="0.2" d="M135.176 132.615C135.176 132.615 136.881 133.977 138.415 134.318C139.949 134.658 140.461 135.509 140.461 135.509" stroke="black" stroke-width="2" stroke-miterlimit="10"/>
<path d="M137.582 126.214L137.718 133.423C137.723 133.661 137.821 133.887 137.993 134.053C138.164 134.219 138.394 134.311 138.632 134.308L152.065 134.157C152.294 134.155 152.513 134.065 152.679 133.908C152.844 133.75 152.944 133.535 152.957 133.307L153.365 126.249C153.372 126.127 153.354 126.004 153.312 125.888C153.27 125.773 153.204 125.667 153.12 125.578C153.035 125.489 152.933 125.417 152.82 125.369C152.707 125.32 152.586 125.295 152.463 125.295H138.486C138.366 125.295 138.247 125.319 138.136 125.365C138.025 125.412 137.925 125.48 137.841 125.565C137.757 125.651 137.69 125.752 137.646 125.864C137.602 125.975 137.58 126.094 137.582 126.214Z" fill="#575A89"/>
<path d="M136.028 115.123C136.394 114.317 136.886 113.56 137.12 112.706C137.401 111.683 137.291 110.601 137.258 109.54C137.205 108.603 137.285 107.662 137.496 106.747C137.71 105.827 138.191 104.991 138.878 104.342C140.665 102.75 143.935 102.635 146.116 103.298C146.976 103.56 147.893 104.057 148.106 104.93C148.138 105.061 148.153 105.197 148.188 105.328C148.367 105.977 149.032 106.388 149.272 107.017C149.583 107.831 149.104 108.716 149.042 109.585C148.968 110.599 149.468 111.557 149.96 112.447C150.252 112.977 150.557 113.54 150.528 114.144C150.503 114.474 150.403 114.794 150.234 115.079C149.92 115.596 149.48 116.025 148.956 116.325C148.431 116.625 147.838 116.788 147.234 116.797C146.84 116.828 146.447 116.736 146.11 116.532C145.577 116.166 145.421 115.429 145.532 114.793C145.643 114.157 145.966 113.582 146.22 112.988C146.297 112.805 146.368 112.62 146.432 112.433C147.218 111.995 147.823 111.294 148.141 110.454C148.459 109.614 148.47 108.688 148.171 107.841C147.872 106.994 147.283 106.279 146.508 105.823C145.733 105.368 144.822 105.2 143.935 105.35C143.048 105.501 142.243 105.959 141.661 106.644C141.08 107.33 140.76 108.199 140.758 109.097C140.756 109.995 141.071 110.865 141.649 111.554C142.227 112.242 143.03 112.704 143.916 112.859C144.107 113.82 144.02 114.815 143.666 115.729C143.343 116.472 142.938 117.176 142.459 117.83C142.263 118.164 142.001 118.456 141.69 118.689C141.485 118.81 141.265 118.904 141.035 118.968C140.072 119.277 139.058 119.526 138.057 119.387C137.055 119.248 136.062 118.644 135.721 117.693C135.422 116.86 135.662 115.929 136.028 115.123Z" fill="#2F2E41"/>
<path d="M144.364 109.107C146.663 109.107 148.526 108.053 148.526 106.752C148.526 105.452 146.663 104.397 144.364 104.397C142.066 104.397 140.203 105.452 140.203 106.752C140.203 108.053 142.066 109.107 144.364 109.107Z" fill="#2F2E41"/>
<path opacity="0.3" d="M207.942 99.5564C207.879 99.4 207.762 99.2709 207.613 99.1919C207.52 99.1375 207.42 99.0967 207.315 99.0707C207.386 99.0369 207.45 98.9919 207.506 98.9375C207.59 98.8601 207.653 98.7631 207.689 98.6553C207.723 98.5449 207.737 98.4292 207.73 98.3138C207.73 98.1222 207.676 97.9344 207.576 97.7712C207.463 97.6221 207.31 97.5085 207.135 97.4442C206.965 97.3783 206.785 97.3418 206.602 97.3364V96.5625L206.133 96.8653V97.3376H205.759V96.8411L205.278 96.5625V97.3376H204.258L204.586 97.919C204.655 97.9142 204.725 97.9237 204.791 97.9468C204.824 97.9616 204.851 97.9872 204.867 98.0195C204.887 98.0882 204.895 98.16 204.889 98.2314V100.329C204.894 100.4 204.887 100.471 204.867 100.54C204.852 100.571 204.844 100.599 204.807 100.616C204.771 100.633 204.77 100.632 204.669 100.632H204.668L204.258 101.213H205.277V101.988H205.757V101.213H206.132V101.988H206.601V101.208C206.838 101.204 207.073 101.162 207.297 101.084C207.504 101.01 207.686 100.877 207.82 100.702C207.937 100.516 208.001 100.302 208.005 100.082C208.018 99.9044 207.996 99.7261 207.942 99.5564ZM205.757 97.9916H205.757V97.9755H206.085C206.269 97.9755 206.883 97.9121 206.894 98.4305C206.904 98.949 206.085 98.9278 206.085 98.9278H205.757V98.8879H205.757V97.9916ZM205.757 99.4692H206.132C206.208 99.4692 206.47 99.4812 206.566 99.4857C206.605 99.4872 206.643 99.4943 206.68 99.5068C206.694 99.5115 206.706 99.5168 206.72 99.5227C206.778 99.5422 206.833 99.5707 206.882 99.6073C206.914 99.6294 206.942 99.6568 206.965 99.6884C207.001 99.7398 207.027 99.7972 207.042 99.8577C207.053 99.9001 207.059 99.9437 207.059 99.9876C207.063 100.071 207.042 100.154 207 100.226C206.94 100.322 206.852 100.397 206.748 100.442C206.552 100.522 206.343 100.562 206.132 100.559H205.757V99.4692Z" fill="#F0B270"/>
<path d="M17.3408 121.028C20.0143 121.028 22.1816 118.864 22.1816 116.194C22.1816 113.525 20.0143 111.36 17.3408 111.36C14.6673 111.36 12.5 113.525 12.5 116.194C12.5 118.864 14.6673 121.028 17.3408 121.028Z" fill="#F2F2F2"/>
<path opacity="0.3" d="M19.1493 116.475C19.0859 116.319 18.9693 116.19 18.8201 116.111C18.7272 116.056 18.627 116.016 18.5225 115.99C18.5929 115.956 18.6574 115.911 18.7134 115.856C18.7969 115.779 18.8597 115.682 18.8962 115.574C18.9303 115.464 18.9441 115.348 18.9372 115.233C18.9366 115.041 18.8831 114.853 18.7826 114.69C18.6704 114.541 18.5174 114.427 18.3421 114.363C18.1718 114.297 17.9916 114.261 17.809 114.255V113.481L17.3404 113.784V114.257H16.9655V113.76L16.4852 113.481V114.257H15.4648L15.7929 114.838C15.8624 114.833 15.9322 114.843 15.9979 114.866C16.0309 114.881 16.0578 114.906 16.074 114.938C16.094 115.007 16.1016 115.079 16.0963 115.15V117.248C16.1014 117.319 16.0939 117.39 16.074 117.459C16.0588 117.49 16.0506 117.518 16.0143 117.535C15.978 117.552 15.9768 117.551 15.8761 117.551H15.8749L15.4649 118.132H16.4841V118.907H16.9644V118.132H17.3393V118.907H17.8079V118.127C18.045 118.123 18.28 118.081 18.5038 118.003C18.7115 117.928 18.8933 117.796 19.0274 117.621C19.1443 117.435 19.2083 117.221 19.2125 117.001C19.2249 116.823 19.2034 116.645 19.1493 116.475ZM16.9644 114.911H16.9645V114.894H17.2921C17.4764 114.894 18.0905 114.831 18.1006 115.349C18.111 115.868 17.2921 115.847 17.2921 115.847H16.9645V115.807H16.9644L16.9644 114.911ZM16.9644 116.388H17.3393C17.4154 116.388 17.6774 116.4 17.7727 116.405C17.8117 116.406 17.8502 116.413 17.8871 116.426C17.9006 116.43 17.9133 116.436 17.9272 116.442C17.9852 116.461 18.0397 116.49 18.0887 116.526C18.121 116.548 18.1492 116.576 18.1722 116.607C18.2077 116.659 18.2337 116.716 18.2487 116.777C18.2599 116.819 18.2657 116.863 18.2659 116.907C18.2698 116.99 18.2495 117.073 18.2075 117.145C18.1473 117.241 18.0591 117.316 17.9547 117.361C17.7595 117.441 17.5502 117.48 17.3393 117.478H16.9644L16.9644 116.388Z" fill="#F0B270"/>
</g>
<defs>
<clipPath id="clip0_84_1262">
<rect width="251" height="169" fill="white"/>
</clipPath>
</defs>
</svg>
